<?xml version="1.0" encoding="UTF-8"?>
<svg version="1.1" viewBox="0 0 1600 1600" width="1280" height="1280" xmlns="http://www.w3.org/2000/svg">
<path transform="translate(594,544)" d="m0 0c0.714 0.0123 1.43 0.0245 2.16 0.0371 66.2 1.12 132 1.12 199 1.09 11.3-0.00447 22.6-0.00365 33.9 9.1e-4 65.4 0.0257 131 0.0328 196-1.13-0.546 0.954-1.09 1.91-1.66 2.89-0.725 1.27-1.45 2.54-2.18 3.8-0.359 0.627-0.718 1.25-1.09 1.9-2.8 4.89-5.52 9.83-8.21 14.8-4.73 8.67-9.68 17.2-14.7 25.7-3.67 6.26-7.23 12.6-10.7 18.9-3.95 7.27-8.06 14.4-12.2 21.6-5.75 9.78-11.3 19.6-16.8 29.6-4.76 8.61-9.62 17.2-14.5 25.7-3.13 5.46-6.23 10.9-9.33 16.4-0.538 0.952-1.08 1.9-1.63 2.89-2.82 5-5.64 10-8.43 15-5.95 10.7-12 21.3-18.1 31.9-0.572 0.981-1.14 1.96-1.73 2.97-3.15 5.38-6.37 10.7-9.71 16-2.61-3.23-4.44-6.62-6.3-10.3-0.647-1.28-1.29-2.55-1.94-3.83-0.506-1-0.506-1-1.02-2.02-6.96-13.7-14.4-27.1-22.3-40.3-2.06-3.49-4.05-7.02-6.04-10.6-1.99-3.53-4.01-6.81-6.5-10-1.94-2.94-1.94-2.94-1.85-5.14 1.27-3.89 3.34-7.05 5.54-10.5 7.45-11.9 14.4-24.1 21.4-36.3 0.51-0.888 1.02-1.78 1.55-2.69 1.3-2.27 2.6-4.54 3.89-6.81 0.557-0.969 0.557-0.969 1.13-1.96 1.86-3.08 1.86-3.08 2.44-6.54h-151c4.62 7.92 9.24 15.8 14 24 2.52 4.49 5.03 8.98 7.5 13.5 5.32 9.65 10.8 19.2 16.4 28.7 4.06 6.91 8.03 13.9 12 20.9 4.24 7.54 8.57 15 13.1 22.4 1.74 2.88 3.35 5.82 4.95 8.79 3.06 5.64 6.27 11.2 9.52 16.7 5.27 8.99 10.5 18 15.6 27.1 4.98 8.73 9.99 17.4 15.1 26.1 12.2 20.8 24.1 41.7 36.1 62.6 2.7 4.72 5.4 9.45 8.09 14.2 0.964 1.69 1.93 3.37 2.89 5.06l1.42 2.49c16.3 28.5 16.3 28.5 17.7 31 0.973 1.7 1.95 3.41 2.92 5.11 2.57 4.49 5.13 8.98 7.69 13.5 1.03 1.8 2.05 3.59 3.08 5.39 1.38 2.41 2.75 4.83 4.12 7.24 3.08 5.4 6.18 10.8 9.39 16.1 0.522 0.872 1.04 1.74 1.58 2.64 0.957 1.59 1.93 3.18 2.91 4.75 0.417 0.697 0.834 1.39 1.26 2.11 0.364 0.592 0.728 1.18 1.1 1.79 0.921 2.68 0.486 4.17-0.358 6.87-1.1 2.08-2.29 4.12-3.54 6.12-0.535 0.872-0.535 0.872-1.08 1.76-1.14 1.86-2.29 3.71-3.45 5.56-1.49 2.41-2.98 4.83-4.47 7.25-0.56 0.907-0.56 0.907-1.13 1.83-2.89 4.71-5.65 9.49-8.37 14.3-3.24 5.71-6.65 11.3-10.1 16.9-6.28 10.2-12.4 20.5-18.2 31-3.57 6.38-7.24 12.7-11 19-5.32 8.94-10.5 17.9-15.7 27-4.62 8.12-9.3 16.2-14 24.3-5.9 10.1-11.6 20.2-17.2 30.5-5 9.11-10.1 18.2-15.3 27.2-2.56 4.46-5.07 8.95-7.55 13.5h-2c-1.26-1.76-1.26-1.76-2.7-4.27-0.543-0.938-1.09-1.88-1.64-2.84-0.589-1.04-1.18-2.07-1.79-3.14-0.927-1.61-0.927-1.61-1.87-3.25-1.67-2.9-3.33-5.81-4.99-8.72-1.65-2.9-3.31-5.8-4.97-8.69-2.34-4.09-4.68-8.19-7.02-12.3-8.93-15.6-17.9-31.2-27-46.8-10.5-17.9-20.8-35.9-31.1-53.9-5.18-9.08-10.4-18.1-15.7-27.2-3.01-5.15-6.02-10.3-9.01-15.5-0.635-1.1-1.27-2.2-1.92-3.33-1.27-2.2-2.53-4.4-3.78-6.6-2.99-5.24-6.04-10.4-9.33-15.5-0.589-0.933-1.18-1.87-1.78-2.83-1.1-1.74-2.24-3.45-3.42-5.14-1.52-2.45-2.48-4.27-2.98-7.11 1.25-4.15 3.59-7.43 6-11 1.28-2.18 2.55-4.38 3.81-6.57 0.681-1.16 1.36-2.32 2.05-3.49 0.349-0.592 0.698-1.18 1.06-1.79 0.357-0.605 0.714-1.21 1.08-1.83 1.13-1.92 2.26-3.84 3.39-5.76 0.762-1.3 1.52-2.59 2.29-3.89 3.63-6.17 7.23-12.4 10.8-18.5 4.26-7.31 8.54-14.6 12.9-21.8 1.25-2.07 2.49-4.12 3.57-6.29 3.93 1.31 4.19 2.7 6.07 6.33 0.581 1.1 1.16 2.21 1.76 3.35 0.454 0.877 0.454 0.877 0.917 1.77 1.56 3 3.14 5.99 4.73 8.98 0.608 1.15 1.22 2.29 1.84 3.47 2.43 4.49 5.06 8.81 7.83 13.1 2.2 3.58 4.19 7.25 6.19 10.9 8.67 16 17.6 31.9 27.1 47.4 1.78 2.93 3.54 5.88 5.29 8.83 7.2 12.1 14.5 24.1 22.3 35.8 3.65-1.22 3.97-2.09 5.94-5.31 0.61-0.993 1.22-1.99 1.85-3.01 0.739-1.23 1.48-2.45 2.21-3.68 0.936-1.54 1.87-3.08 2.81-4.62 5.89-9.71 11.6-19.5 17.1-29.4 1.14-2.04 2.31-4.06 3.48-6.08 0.762-1.35 1.52-2.69 2.29-4.04 0.546-0.918 0.546-0.918 1.1-1.85 1.13-1.94 1.13-1.94 2.21-4.96-1.12-3.6-2.9-6.73-4.8-9.96-0.558-0.953-1.12-1.91-1.69-2.89-0.601-1.02-1.2-2.04-1.82-3.08-0.626-1.07-1.25-2.13-1.9-3.23-4.59-7.81-9.21-15.6-13.8-23.4-6.1-10.3-12.1-20.7-18.1-31.1-3.13-5.44-6.27-10.9-9.41-16.3-1.25-2.17-2.5-4.34-3.75-6.51-2.49-4.31-4.97-8.62-7.46-12.9-3.77-6.52-7.53-13-11.3-19.6-0.646-1.12-1.29-2.24-1.96-3.4-7.9-13.7-15.7-27.5-23.3-41.4-9.02-16.4-18.3-32.6-27.8-48.8-3.76-6.41-7.37-12.9-10.9-19.4-6.81-12.6-13.8-25.1-21.1-37.5-3.78-6.44-7.37-12.9-10.8-19.5-3.17-5.99-6.55-11.9-9.9-17.8-3.49-6.15-6.95-12.3-10.4-18.5-5.27-9.46-10.6-18.9-16.1-28.2-4.26-7.25-8.36-14.5-12.2-22-3.2-6.14-6.7-12.1-10.2-18.1-6.56-11.1-12.8-22.4-18.8-33.8-1.15-2.11-2.32-4.2-3.51-6.28-0.631-1.1-1.26-2.2-1.91-3.34z" fill="#000100"/>
<path transform="translate(423,638)" d="m0 0c3.55 3.18 5.71 6.72 7.94 10.9 3.63 6.61 7.39 13.1 11.2 19.6 8.38 14.1 16.7 28.3 24.9 42.5 0.337 0.585 0.674 1.17 1.02 1.77 1.63 2.83 3.25 5.65 4.88 8.48 0.589 1.02 1.18 2.05 1.78 3.1 0.832 1.45 0.832 1.45 1.68 2.93 1.83 3.08 3.79 6.05 5.84 8.98 0.752 1.72 0.752 1.72 0.712 3.67-1.42 3.04-3.63 4.39-6.31 6.39-13.6 10.7-13.6 10.7-20.2 26.1-0.85 9.43 0.14 18.9 1.26 28.3 0.341 2.98 0.598 5.96 0.854 8.94 7.15 82.2 48.1 166 111 221 1.82 1.49 3.65 2.97 5.5 4.43 2.84 2.27 5.59 4.62 8.35 6.98 13.6 11.3 28.2 20.8 43.3 29.9 1.91 1.19 3.71 2.45 5.52 3.78 2.39 1.74 2.39 1.74 4.47 1.48 3.16-1.34 5.25-3.62 7.6-6.05 0.505-0.509 1.01-1.02 1.53-1.54 1.61-1.62 3.2-3.26 4.8-4.89 1.09-1.1 2.18-2.21 3.27-3.31 2.67-2.7 5.33-5.41 7.98-8.13 2.79 3.43 5.11 6.76 7.25 10.6 4.08 7.27 8.31 14.5 12.6 21.6 0.351 0.593 0.702 1.19 1.06 1.8 4.15 7 8.34 14 12.6 20.9 5.33 8.64 10.3 17.5 15.3 26.3 3.39 5.98 6.81 11.9 10.3 17.8 0.655 1.11 1.31 2.21 1.99 3.35 1.25 2.1 2.5 4.2 3.77 6.3 0.553 0.932 1.11 1.86 1.67 2.83 0.735 1.23 0.735 1.23 1.48 2.48 0.303 0.655 0.606 1.31 0.918 1.99-0.33 0.66-0.66 1.32-1 2-40.9-9-80.9-20.3-118-40.8-2.3-1.27-4.6-2.52-6.91-3.77-25.6-13.9-50.4-30.8-71.6-50.9-2.14-2-4.29-3.92-6.51-5.82-4.82-4.2-9.32-8.68-13.8-13.2-0.811-0.808-1.62-1.62-2.46-2.45-4.87-4.88-9.51-9.88-14-15.1-0.846-0.964-1.69-1.93-2.56-2.92-12.7-14.8-24.2-30.5-34.4-47.1-0.383-0.616-0.766-1.23-1.16-1.87-2.69-4.34-5.28-8.72-7.84-13.1-0.626-1.07-0.626-1.07-1.26-2.16-8.38-14.4-15.3-29.5-21.7-44.8-0.383-0.908-0.766-1.82-1.16-2.75-9.6-23.1-16.1-47.7-20.8-72.2-0.146-0.732-0.293-1.46-0.443-2.22-1.8-9.06-3.05-18.2-4.18-27.3-0.123-0.992-0.247-1.98-0.374-3.01-1.7-14.4-2.21-28.8-2.19-43.4 9.37e-4 -0.806 0.00187-1.61 0.00284-2.44 0.117-46.7 9.35-91.4 24.2-136z" fill="#000100"/>
<path transform="translate(1181,660)" d="m0 0h2c14.5 58.8 20.8 117 12 177-0.232 1.65-0.232 1.65-0.469 3.33-5.33 37-17.4 74-33.5 108-0.409 0.869-0.819 1.74-1.24 2.63-9.2 19.5-20.2 37.9-32.8 55.4-0.684 0.968-1.37 1.94-2.07 2.93-12.3 17.2-25.8 33.4-40.9 48.1-2.74 2.72-5.46 5.47-8.16 8.23-6.95 7.08-14 13.6-21.8 19.8-1.77 1.48-3.54 2.96-5.31 4.44-45 36.7-102 66.1-160 76.6 6.09-12.3 12.9-24.3 19.9-36.1 3.98-6.71 7.88-13.5 11.7-20.3 0.509-0.89 0.509-0.89 1.03-1.8 5.81-10.2 11.5-20.4 17.2-30.6 12-21.7 12-21.7 18.1-31.2 5.25 4.38 10.1 9.01 14.9 13.9 0.684 0.688 1.37 1.38 2.07 2.09 1.67 1.68 3.33 3.36 4.99 5.04 22.3-13.7 42.2-29.8 61-48 0.512-0.495 1.02-0.991 1.55-1.5 4.8-4.67 9.41-9.44 13.8-14.5 1.14-1.32 2.3-2.62 3.48-3.9 6.66-7.24 12.4-15.1 18.2-23.1 1.16-1.59 1.16-1.59 2.35-3.22 41.5-58.4 58-125 62.7-196h-29c6.76-12.4 6.76-12.4 9.41-17 0.59-1.02 1.18-2.05 1.79-3.1 0.923-1.59 0.923-1.59 1.86-3.22 0.656-1.14 1.31-2.27 1.99-3.44 5.11-8.84 10.3-17.6 15.5-26.4 3.98-6.72 7.93-13.5 11.9-20.2 0.537-0.916 0.537-0.916 1.08-1.85 5.71-9.75 11.4-19.5 17.1-29.3 0.534-0.917 1.07-1.83 1.62-2.78 0.463-0.795 0.925-1.59 1.4-2.41 0.447-0.762 0.895-1.52 1.36-2.31 0.766-1.38 0.766-1.38 1.55-2.79 0.479-0.728 0.959-1.46 1.45-2.21z" fill="#000100"/>
<path transform="translate(1007,434)" d="m0 0c0.77 0.461 1.54 0.921 2.33 1.4 20.2 12.1 39 26.4 56.3 42.4 3.98 3.68 8.05 7.27 12.2 10.7 4.17 3.46 7.9 7.14 11.2 11.5v1h-123c-0.33-7.92-0.66-15.8-1-24-7.45-5.42-7.45-5.42-15.2-8.9-3.58-1.29-7.08-2.62-10.5-4.2-4.69-2.13-9.45-4.04-14.3-5.9-0.954-0.369-1.91-0.737-2.89-1.12-14.8-5.66-29.7-10.3-45.1-13.9-0.962-0.227-1.92-0.453-2.92-0.687-22.8-5.29-45.7-7.75-69.1-8.31-0.708-0.0219-1.42-0.0438-2.15-0.0664-57.1-1.66-117 13.3-166 41.6-0.803 0.455-1.61 0.91-2.43 1.38-0.713 0.41-1.43 0.82-2.16 1.24-1.78 0.883-1.78 0.883-3.78 0.883v23c-39.6 0.33-79.2 0.66-120 1 2.03-4.07 4.43-6.69 7.62-9.81 0.542-0.535 1.08-1.07 1.64-1.62 3.46-3.39 7-6.66 10.7-9.8 2.5-2.16 4.93-4.4 7.36-6.64 16.2-14.8 34.1-27.5 52.7-39.1 0.602-0.379 1.2-0.759 1.82-1.15 17.8-11.2 36.8-20.7 56.2-28.9 0.93-0.394 1.86-0.788 2.82-1.19 27.2-11.4 56-19.1 85.2-23.8 1.38-0.225 1.38-0.225 2.8-0.455 90.4-14.4 186 3.1 270 53.5z" fill="#000100"/>
<path transform="translate(418,545)" d="m0 0c12.3-0.0546 24.6-0.0664 36.9-0.0233 5.71 0.0186 11.4 0.0225 17.1-0.00742 5.51-0.0283 11-0.0178 16.5 0.0196 2.1 0.00745 4.21 9.02e-4 6.31-0.0198 2.95-0.0267 5.89-0.00366 8.83 0.031 0.87-0.0194 1.74-0.0388 2.64-0.0588 2.46 0.0593 4.34 0.19 6.65 1.06 2.25 2.42 3.61 5.03 5 8 0.593 1.01 1.19 2.02 1.8 3.07 0.823 1.45 0.823 1.45 1.66 2.93 0.628 1.1 1.26 2.21 1.9 3.34 0.327 0.576 0.654 1.15 0.991 1.75 1.77 3.12 3.54 6.23 5.32 9.34 0.362 0.636 0.724 1.27 1.1 1.93 3.58 6.27 7.18 12.5 10.8 18.8 0.615 1.06 1.23 2.13 1.86 3.23 1.86 3.22 3.72 6.43 5.57 9.65 2.48 4.29 4.96 8.58 7.44 12.9 0.617 1.07 1.23 2.14 1.87 3.24 3.23 5.59 6.44 11.2 9.63 16.8 1.33 2.34 2.67 4.69 4 7.03 0.496 0.871 0.496 0.871 1 1.76 5.64 9.9 11.4 19.7 17.3 29.5 4.78 8.04 9.43 16.2 14 24.3 3.8 6.76 7.68 13.5 11.6 20.2 5.16 8.8 10.3 17.6 15.3 26.5 0.338 0.592 0.676 1.18 1.02 1.8 2.28 4 4.57 8.01 6.85 12 2.1 3.69 4.21 7.38 6.31 11.1 0.483 0.846 0.966 1.69 1.46 2.56 3.64 6.37 7.32 12.7 11 19.1 4.26 7.34 8.42 14.7 12.6 22.2 2.34 4.16 4.69 8.29 7.29 12.3 0.384 0.592 0.768 1.18 1.16 1.8 0.985 1.49 1.99 2.97 3 4.45 1.55 3.4 1.06 5.02 0.195 8.62-1.31 2.7-1.31 2.7-3 5.47-0.632 1.05-1.26 2.1-1.91 3.18-0.688 1.12-1.38 2.25-2.09 3.41-0.718 1.19-1.43 2.38-2.15 3.57-1.12 1.87-2.25 3.73-3.37 5.6-3.84 6.35-7.58 12.7-11.3 19.2-5.98 10.2-12 20.5-18.2 30.6-1 1.67-2 3.33-3 5-3.77-1.26-4.01-2.3-5.86-5.72-0.55-1-1.1-2-1.67-3.03-0.588-1.09-1.18-2.18-1.78-3.31-1.27-2.3-2.53-4.61-3.8-6.91-0.323-0.588-0.647-1.18-0.98-1.78-3.21-5.83-6.54-11.6-9.91-17.3-0.578-0.987-1.16-1.97-1.75-2.99-1.17-1.99-2.34-3.99-3.51-5.98-8.66-14.7-17.2-29.5-25.7-44.4-6.35-11.1-12.8-22.2-19.2-33.3-1.88-3.26-3.76-6.53-5.64-9.79-6.02-10.5-12.1-20.9-18.2-31.3-5.74-9.82-11.4-19.7-17-29.6-6.35-11.1-12.8-22.2-19.2-33.3-1.88-3.26-3.76-6.53-5.64-9.79-6.08-10.6-12.2-21.1-18.3-31.6-5.2-8.89-10.3-17.8-15.3-26.8-3.21-5.69-6.49-11.3-9.89-16.9-4.59-7.59-8.94-15.3-13.3-23-3.53-6.2-7.07-12.4-10.7-18.6-0.348-0.6-0.695-1.2-1.05-1.82-1.67-2.87-3.33-5.74-5.01-8.61-0.592-1.02-1.18-2.04-1.79-3.09-0.521-0.895-1.04-1.79-1.58-2.71-1.24-2.28-1.24-2.28-2.24-5.28z" fill="#000100"/>
<path transform="translate(1200,545)" d="m0 0c-1.62 4.19-3.65 7.93-6 11.8-0.82 1.35-1.64 2.7-2.46 4.05-0.422 0.696-0.845 1.39-1.28 2.11-3.82 6.32-7.53 12.7-11.3 19.1-0.512 0.872-1.02 1.74-1.55 2.64-7.26 12.4-14.4 24.8-21.5 37.3-4.47 7.84-8.99 15.6-13.6 23.4-4.91 8.25-9.67 16.6-14.4 24.9-3.89 6.91-7.86 13.8-11.9 20.6-4.75 8.09-9.38 16.2-13.9 24.4-5.33 9.6-10.9 19.1-16.5 28.5-4.19 7.02-8.32 14.1-12.3 21.2-3.83 6.87-7.81 13.6-11.8 20.4-4.39 7.5-8.74 15-13.1 22.5-10.3 17.9-20.8 35.8-31.3 53.6-0.393 0.661-0.785 1.32-1.19 2-8.61 14.5-17.3 29-26.1 43.4-0.778 1.28-1.56 2.56-2.33 3.84-1.87 3.07-3.74 6.15-5.6 9.22-4.11-1.37-4.47-3.22-6.5-7-3.04-5.53-6.28-10.9-9.75-16.1-8.77-13.4-17-27.1-24.6-41.2-0.543-0.969-1.09-1.94-1.64-2.94-3.6-6.77-3.6-6.77-3.09-10.8 0.797-1.43 0.797-1.43 1.61-2.89 0.328-0.652 0.656-1.3 0.994-1.98 1.17-2.32 2.39-4.61 3.63-6.9 3.15-5.9 6.24-11.8 9.19-17.8 8.08-16.3 17.1-32.2 26.2-48 2.62-4.55 5.2-9.12 7.78-13.7 7.28-12.9 14.7-25.8 22.2-38.6 0.455-0.775 0.909-1.55 1.38-2.35 8.24-14.1 16.5-28.1 24.8-42.1 6.32-10.7 12.6-21.4 18.8-32.1 3.09-5.3 6.2-10.6 9.38-15.8 6.09-10.1 11.9-20.3 17.8-30.5 1.99-3.45 3.99-6.9 5.99-10.4 0.493-0.851 0.987-1.7 1.49-2.58 0.604-0.965 0.604-0.965 1.22-1.95 2.54-4.16 4.41-7.98 5.76-12.7 2.15-6.43 4.63-11.6 10.3-15.6 12-4.18 26.6-2.36 39.1-1.91 4.88 0.154 9.76 0.19 14.6 0.236 7.95 0.0877 15.9 0.261 23.8 0.499 5.81 0.169 11.6 0.232 17.4 0.171z" fill="#000100"/>
</svg>
